<svg width="168" height="92" viewBox="0 0 168 92" fill="none"
  xmlns="http://www.w3.org/2000/svg">
  <g opacity="0.945">
    <path fill-rule="evenodd" clip-rule="evenodd" d="M19.5 0.5C35.5 0.5 51.5 0.5 67.5 0.5C67.5 6.5 67.5 12.5 67.5 18.5C51.5 18.5 35.5 18.5 19.5 18.5C19.5 12.5 19.5 6.5 19.5 0.5Z" fill="#D5ECFA"/>
    <path fill-rule="evenodd" clip-rule="evenodd" d="M83.5 3.5C84.721 2.53537 86.054 2.70204 87.5 4C99.252 10.9596 111.085 17.793 123 24.5C135.084 17.2073 147.251 10.0406 159.5 3C160.5 2.33333 161.5 2.33333 162.5 3C149.333 16.1667 136.167 29.3333 123 42.5C109.965 29.2981 96.798 16.2981 83.5 3.5Z" fill="#C9FF61"/>
    <path fill-rule="evenodd" clip-rule="evenodd" d="M78.5 8.5C77.833 7.16667 77.833 7.16667 78.5 8.5Z" fill="#E2E3FE"/>
    <path fill-rule="evenodd" clip-rule="evenodd" d="M78.5 8.5C91.632 21.1314 104.632 33.9647 117.5 47C105.042 60.6247 92.042 73.7914 78.5 86.5C78.167 86.3333 77.833 86.1667 77.5 86C84.84 72.984 92.174 59.984 99.5 47C92.101 34.3685 85.101 21.5351 78.5 8.5Z" fill="#D5EDFB"/>
    <path fill-rule="evenodd" clip-rule="evenodd" d="M167.5 7.5C167.5 8.5 167.5 9.5 167.5 10.5C160.067 22.5201 152.733 34.6868 145.5 47C152.986 59.4809 160.319 71.9809 167.5 84.5C167.5 85.1667 167.5 85.8333 167.5 86.5C153.994 73.8269 140.994 60.6603 128.5 47C140.994 33.3397 153.994 20.1731 167.5 7.5Z" fill="#D4ECFB"/>
    <path fill-rule="evenodd" clip-rule="evenodd" d="M19.5 0.5C19.5 6.5 19.5 12.5 19.5 18.5C19.5 24.5 19.5 30.5 19.5 36.5C18.596 37.209 18.263 38.209 18.5 39.5C12.308 38.3455 6.30796 38.6788 0.499963 40.5C0.333963 32.8261 0.499963 25.1594 0.999963 17.5C7.33696 11.9956 13.504 6.3289 19.5 0.5Z" fill="#CFFD64"/>
    <path fill-rule="evenodd" clip-rule="evenodd" d="M19.5 36.5C31.5 36.5 43.5 36.5 55.5 36.5C55.5 42.1667 55.5 47.8333 55.5 53.5C43.5 53.5 31.5 53.5 19.5 53.5C19.5 47.8333 19.5 42.1667 19.5 36.5Z" fill="#D4ECFB"/>
    <path fill-rule="evenodd" clip-rule="evenodd" d="M19.5 36.5C19.5 42.1667 19.5 47.8333 19.5 53.5C19.5 57.1667 19.5 60.8333 19.5 64.5C17.53 63.8384 15.53 63.1717 13.5 62.5C9.13697 63.1675 4.80297 63.8342 0.499969 64.5C0.499969 56.5 0.499963 48.5 0.499963 40.5C6.30796 38.6788 12.308 38.3455 18.5 39.5C18.263 38.209 18.596 37.209 19.5 36.5Z" fill="#DBF96C"/>
    <path fill-rule="evenodd" clip-rule="evenodd" d="M161.5 91.5C160.833 91.5 160.167 91.5 159.5 91.5C147.788 83.8882 135.621 76.8882 123 70.5C110.211 77.1404 97.711 84.1404 85.5 91.5C84.833 91.5 84.167 91.5 83.5 91.5C96.146 78.1877 109.146 65.1877 122.5 52.5C135.908 65.2418 148.908 78.2418 161.5 91.5Z" fill="#C9FF61"/>
    <path fill-rule="evenodd" clip-rule="evenodd" d="M19.5 64.5C19.5 73.5 19.5 82.5 19.5 91.5C18.833 91.5 18.167 91.5 17.5 91.5C11.895 86.3971 6.39498 81.0638 0.999981 75.5C0.500981 71.8484 0.334969 68.1817 0.499969 64.5C4.80297 63.8342 9.13697 63.1675 13.5 62.5C15.53 63.1717 17.53 63.8384 19.5 64.5Z" fill="#E6F670"/>
  </g>
</svg>
