<?xml version="1.0" encoding="UTF-8"?>
<svg id="Camada_1" xmlns="http://www.w3.org/2000/svg" xmlns:xlink="http://www.w3.org/1999/xlink" viewBox="0 0 878.17 184.86">
  <defs>
    <style>
      .cls-1 {
        fill: #e5f770;
      }

      .cls-2 {
        fill: #e7f671;
      }

      .cls-3 {
        fill: #d5edfb;
      }

      .cls-4 {
        fill: #e4f770;
      }

      .cls-5 {
        fill: #e6f771;
      }

      .cls-6 {
        fill: #d5fb68;
      }

      .cls-7 {
        fill: #e1f86e;
      }

      .cls-8 {
        fill: #d4fc67;
      }

      .cls-9 {
        fill: #e0f86e;
      }

      .cls-10 {
        fill: #fff;
      }

      .cls-11 {
        fill: #cefe64;
      }

      .cls-12 {
        fill: #ebf573;
      }

      .cls-13 {
        fill: #def96d;
      }

      .cls-14 {
        fill: none;
      }

      .cls-15 {
        fill: #cdfe63;
      }

      .cls-16 {
        fill: #dafa6b;
      }

      .cls-17 {
        fill: #c9ff61;
      }

      .cls-18 {
        fill: #d9fa6a;
      }

      .cls-19 {
        fill: #cffd64;
      }

      .cls-20 {
        fill: #d2fc66;
      }

      .cls-21 {
        fill: #ddf96c;
      }

      .cls-22 {
        fill: #eef475;
      }

      .cls-23 {
        fill: #e8f672;
      }

      .cls-24 {
        fill: #ccfe63;
      }

      .cls-25 {
        fill: #dff86d;
      }

      .cls-26 {
        fill: #d0fd65;
      }

      .cls-27 {
        fill: #edf575;
      }

      .cls-28 {
        fill: #e9f672;
      }

      .cls-29 {
        fill: #caff62;
      }

      .cls-30 {
        fill: #f0f476;
      }

      .cls-31 {
        fill: #eaf573;
      }

      .cls-32 {
        fill: #dcf96c;
      }

      .cls-33 {
        fill: #d1fd65;
      }

      .cls-34 {
        fill: #eff476;
      }

      .cls-35 {
        fill: #d8fb69;
      }

      .cls-36 {
        fill: #dbfa6b;
      }

      .cls-37 {
        fill: #d7fb69;
      }

      .cls-38 {
        fill: #e3f86f;
      }

      .cls-39 {
        clip-path: url(#clippath);
      }

      .cls-40 {
        fill: #d6fb68;
      }

      .cls-41 {
        fill: #cbfe62;
      }

      .cls-42 {
        fill: #ecf574;
      }

      .cls-43 {
        fill: #d3fc67;
      }
    </style>
    <clipPath id="clippath">
      <polygon class="cls-14" points="590.42 8.23 590.42 184.86 555.08 151.88 555.08 41.13 590.42 8.23"/>
    </clipPath>
  </defs>
  <g>
    <rect class="cls-3" x="590.42" y="77.47" width="69.35" height="32.19"/>
    <polygon class="cls-3" points="590.42 8.32 590.42 40.54 682.96 40.54 682.96 8.23 590.42 8.32"/>
  </g>
  <g>
    <path class="cls-10" d="M160.29,175.8h-17.9c-2.07,0-3.74-.52-5.01-1.55-1.27-1.03-2.23-2.35-2.86-3.94l-15.99-41.29H41.77l-15.99,41.29c-.56,1.43-1.51,2.71-2.86,3.82-1.35,1.12-3.02,1.67-5.01,1.67H0L68.39,4.77h23.51l68.39,171.03ZM48.22,112.31h63.85l-26.85-69.58c-1.75-4.3-3.46-9.67-5.13-16.11-.88,3.26-1.73,6.27-2.57,9.01s-1.65,5.15-2.45,7.22l-26.85,69.46Z"/>
    <path class="cls-10" d="M215.19,177.71c-9.55,0-16.89-2.66-22.02-8-5.13-5.33-7.7-13.01-7.7-23.03v-74h-14.56c-1.27,0-2.35-.38-3.22-1.13-.88-.76-1.31-1.93-1.31-3.52v-8.47l19.81-2.51,4.89-37.36c.16-1.19.68-2.17,1.55-2.92.87-.75,1.99-1.13,3.34-1.13h10.74v41.65h34.61v15.4h-34.61v72.56c0,5.09,1.23,8.87,3.7,11.34,2.47,2.47,5.65,3.7,9.55,3.7,2.23,0,4.16-.3,5.79-.89,1.63-.6,3.04-1.25,4.24-1.97,1.19-.72,2.21-1.37,3.04-1.97.84-.6,1.57-.9,2.21-.9,1.11,0,2.11.68,2.98,2.03l6.21,10.14c-3.66,3.42-8.08,6.11-13.25,8.06-5.17,1.95-10.5,2.92-15.99,2.92Z"/>
    <path class="cls-10" d="M291.21,0v175.8h-21.24V0h21.24Z"/>
    <path class="cls-10" d="M417.48,175.8h-9.43c-2.07,0-3.74-.32-5.01-.96-1.27-.64-2.11-1.99-2.51-4.06l-2.39-11.22c-3.18,2.86-6.29,5.43-9.31,7.7-3.02,2.27-6.21,4.18-9.55,5.73s-6.9,2.73-10.68,3.52c-3.78.79-7.98,1.19-12.59,1.19s-9.09-.66-13.19-1.97c-4.1-1.32-7.66-3.29-10.68-5.93-3.02-2.64-5.43-5.97-7.22-10-1.79-4.03-2.69-8.8-2.69-14.31,0-4.79,1.31-9.4,3.94-13.83,2.63-4.43,6.86-8.36,12.71-11.8,5.85-3.43,13.5-6.25,22.97-8.44,9.47-2.19,21.04-3.29,34.73-3.29v-9.49c0-9.45-2.01-16.59-6.03-21.44-4.02-4.84-9.97-7.27-17.84-7.27-5.17,0-9.53.66-13.07,1.97-3.54,1.31-6.6,2.79-9.19,4.42-2.59,1.63-4.81,3.1-6.68,4.42-1.87,1.31-3.72,1.97-5.55,1.97-1.43,0-2.69-.38-3.76-1.13-1.07-.76-1.93-1.69-2.57-2.81l-3.82-6.8c6.68-6.44,13.88-11.26,21.6-14.44,7.72-3.18,16.27-4.77,25.66-4.77,6.76,0,12.77,1.12,18.02,3.34,5.25,2.23,9.67,5.33,13.25,9.31,3.58,3.98,6.28,8.79,8.12,14.44,1.83,5.65,2.74,11.86,2.74,18.62v77.34ZM362.34,162.79c3.74,0,7.16-.38,10.26-1.13,3.1-.76,6.03-1.83,8.77-3.22,2.75-1.39,5.37-3.08,7.88-5.07,2.51-1.99,4.95-4.26,7.34-6.8v-24.94c-9.79,0-18.1.62-24.94,1.86-6.84,1.24-12.41,2.86-16.71,4.86-4.3,2-7.42,4.36-9.37,7.08-1.95,2.72-2.92,5.76-2.92,9.12s.52,5.96,1.55,8.28c1.03,2.32,2.43,4.22,4.18,5.7,1.75,1.48,3.82,2.56,6.21,3.24,2.39.68,4.97,1.02,7.76,1.02Z"/>
    <path class="cls-10" d="M518.92,74.83c-.95,1.75-2.43,2.63-4.42,2.63-1.19,0-2.55-.44-4.06-1.31-1.51-.87-3.36-1.85-5.55-2.92-2.19-1.07-4.79-2.07-7.82-2.98-3.02-.91-6.6-1.37-10.74-1.37-3.58,0-6.8.46-9.67,1.37-2.86.92-5.31,2.17-7.34,3.76-2.03,1.59-3.58,3.44-4.65,5.55-1.07,2.11-1.61,4.4-1.61,6.86,0,3.1.9,5.69,2.69,7.76,1.79,2.07,4.16,3.86,7.1,5.37,2.94,1.51,6.28,2.85,10.03,4,3.74,1.15,7.58,2.39,11.52,3.7,3.94,1.31,7.78,2.77,11.52,4.36,3.74,1.59,7.08,3.58,10.03,5.97,2.94,2.39,5.31,5.31,7.1,8.77,1.79,3.46,2.69,7.62,2.69,12.47,0,5.57-1,10.72-2.98,15.46-1.99,4.74-4.93,8.83-8.83,12.29-3.9,3.46-8.67,6.19-14.32,8.18-5.65,1.99-12.17,2.98-19.57,2.98-8.43,0-16.07-1.37-22.92-4.12-6.84-2.75-12.65-6.27-17.42-10.56l5.01-8.12c.64-1.03,1.39-1.83,2.27-2.39.87-.56,2.03-.84,3.46-.84s2.94.56,4.54,1.67c1.59,1.12,3.52,2.35,5.79,3.7,2.27,1.35,5.01,2.59,8.23,3.7,3.22,1.12,7.26,1.67,12.11,1.67,4.14,0,7.76-.54,10.86-1.61s5.69-2.52,7.76-4.36c2.07-1.83,3.6-3.94,4.59-6.33.99-2.39,1.49-4.93,1.49-7.64,0-3.34-.9-6.11-2.69-8.29-1.79-2.19-4.16-4.06-7.1-5.61-2.94-1.55-6.31-2.9-10.08-4.06-3.78-1.15-7.64-2.37-11.58-3.64-3.94-1.27-7.8-2.72-11.58-4.36-3.78-1.63-7.14-3.68-10.08-6.15-2.94-2.47-5.31-5.51-7.1-9.13-1.79-3.62-2.69-8.02-2.69-13.19,0-4.61.95-9.05,2.86-13.31,1.91-4.26,4.69-8,8.35-11.22,3.66-3.22,8.16-5.79,13.49-7.7,5.33-1.91,11.42-2.86,18.26-2.86,7.96,0,15.1,1.25,21.42,3.76,6.33,2.51,11.79,5.95,16.41,10.32l-4.77,7.76Z"/>
  </g>
  <g class="cls-39">
    <polygon class="cls-17" points="590.42 36.48 555.08 35.74 555.08 8.23 590.42 8.23 590.42 36.48"/>
    <polygon class="cls-17" points="590.42 40.36 555.08 39.62 555.08 35.74 590.42 36.48 590.42 40.36"/>
    <polygon class="cls-29" points="590.42 44.24 555.08 43.5 555.08 39.62 590.42 40.36 590.42 44.24"/>
    <polygon class="cls-41" points="590.42 48.12 555.08 47.38 555.08 43.5 590.42 44.24 590.42 48.12"/>
    <polygon class="cls-24" points="590.42 52 555.08 51.26 555.08 47.38 590.42 48.12 590.42 52"/>
    <polygon class="cls-15" points="590.42 55.87 555.08 55.14 555.08 51.26 590.42 52 590.42 55.87"/>
    <polygon class="cls-11" points="590.42 59.75 555.08 59.01 555.08 55.14 590.42 55.87 590.42 59.75"/>
    <polygon class="cls-19" points="590.42 63.63 555.08 62.89 555.08 59.01 590.42 59.75 590.42 63.63"/>
    <polygon class="cls-26" points="590.42 67.51 555.08 66.77 555.08 62.89 590.42 63.63 590.42 67.51"/>
    <polygon class="cls-33" points="590.42 71.39 555.08 70.65 555.08 66.77 590.42 67.51 590.42 71.39"/>
    <polygon class="cls-20" points="590.42 75.27 555.08 74.53 555.08 70.65 590.42 71.39 590.42 75.27"/>
    <polygon class="cls-43" points="590.42 79.14 555.08 78.41 555.08 74.53 590.42 75.27 590.42 79.14"/>
    <polygon class="cls-8" points="590.42 83.02 555.08 82.28 555.08 78.41 590.42 79.14 590.42 83.02"/>
    <polygon class="cls-6" points="590.42 86.9 555.08 86.16 555.08 82.28 590.42 83.02 590.42 86.9"/>
    <polygon class="cls-40" points="590.42 90.78 555.08 90.04 555.08 86.16 590.42 86.9 590.42 90.78"/>
    <polygon class="cls-37" points="590.42 94.66 555.08 93.92 555.08 90.04 590.42 90.78 590.42 94.66"/>
    <polygon class="cls-35" points="590.42 98.54 555.08 97.8 555.08 93.92 590.42 94.66 590.42 98.54"/>
    <polygon class="cls-18" points="590.42 102.41 555.08 101.68 555.08 97.8 590.42 98.54 590.42 102.41"/>
    <polygon class="cls-16" points="590.42 106.29 555.08 105.55 555.08 101.68 590.42 102.41 590.42 106.29"/>
    <polygon class="cls-36" points="590.42 110.17 555.08 109.43 555.08 105.55 590.42 106.29 590.42 110.17"/>
    <polygon class="cls-32" points="590.42 114.05 555.08 113.31 555.08 109.43 590.42 110.17 590.42 114.05"/>
    <polygon class="cls-21" points="590.42 117.93 555.08 117.19 555.08 113.31 590.42 114.05 590.42 117.93"/>
    <polygon class="cls-13" points="590.42 121.81 555.08 121.07 555.08 117.19 590.42 117.93 590.42 121.81"/>
    <polygon class="cls-25" points="590.42 125.68 555.08 124.95 555.08 121.07 590.42 121.81 590.42 125.68"/>
    <polygon class="cls-9" points="590.42 129.56 555.08 128.82 555.08 124.95 590.42 125.68 590.42 129.56"/>
    <polygon class="cls-7" points="590.42 133.44 555.08 132.7 555.08 128.82 590.42 129.56 590.42 133.44"/>
    <polygon class="cls-38" points="590.42 137.32 555.08 136.58 555.08 132.7 590.42 133.44 590.42 137.32"/>
    <polygon class="cls-4" points="590.42 141.2 555.08 140.46 555.08 136.58 590.42 137.32 590.42 141.2"/>
    <polygon class="cls-1" points="590.42 145.08 555.08 144.34 555.08 140.46 590.42 141.2 590.42 145.08"/>
    <polygon class="cls-5" points="590.42 148.95 555.08 148.22 555.08 144.34 590.42 145.08 590.42 148.95"/>
    <polygon class="cls-2" points="590.42 152.83 555.08 152.1 555.08 148.22 590.42 148.95 590.42 152.83"/>
    <polygon class="cls-23" points="590.42 156.71 555.08 155.97 555.08 152.1 590.42 152.83 590.42 156.71"/>
    <polygon class="cls-28" points="590.42 160.59 555.08 159.85 555.08 155.97 590.42 156.71 590.42 160.59"/>
    <polygon class="cls-31" points="590.42 164.47 555.08 163.73 555.08 159.85 590.42 160.59 590.42 164.47"/>
    <polygon class="cls-12" points="590.42 168.35 555.08 167.61 555.08 163.73 590.42 164.47 590.42 168.35"/>
    <polygon class="cls-42" points="590.42 172.22 555.08 171.49 555.08 167.61 590.42 168.35 590.42 172.22"/>
    <polygon class="cls-27" points="590.42 176.1 555.08 175.37 555.08 171.49 590.42 172.22 590.42 176.1"/>
    <polygon class="cls-22" points="590.42 179.98 555.08 179.24 555.08 175.37 590.42 176.1 590.42 179.98"/>
    <polygon class="cls-34" points="590.42 183.86 555.08 183.12 555.08 179.24 590.42 179.98 590.42 183.86"/>
    <polygon class="cls-30" points="555.08 183.12 590.42 183.86 590.42 184.86 555.08 184.86 555.08 183.12"/>
  </g>
  <g>
    <polygon class="cls-17" points="715.17 11.09 791.13 86.66 866.71 11.21 791.09 54.32 715.17 11.09"/>
    <polygon class="cls-3" points="704.71 173.21 780.29 97.3 704.83 21.67 747.95 97.3 704.71 173.21"/>
    <polygon class="cls-3" points="878.17 21.88 802.59 97.3 878.05 173.42 834.93 97.79 878.17 21.88"/>
    <polygon class="cls-17" points="867.04 183.92 791.13 108.34 715.5 183.8 791.13 140.68 867.04 183.92"/>
  </g>
</svg>