<?xml version="1.0" encoding="UTF-8"?>
<svg id="Camada_1"
  xmlns="http://www.w3.org/2000/svg" viewBox="0 0 1615 336.37">
  <defs>
    <style>
      .cls-1 {
        fill: #fdc800;
      }

      .cls-2 {
        fill: #172136;
      }

      .cls-3 {
        fill: #09515d;
      }

      .cls-4 {
        fill: #f3f2f3;
      }

      .cls-5 {
        fill: #d8d7d7;
      }
    </style>
  </defs>
  <g>
    <path class="cls-4" d="M413.19,201.53c1.28,0,2.41.5,3.4,1.48l9.25,10.04c-5.12,6.34-11.42,11.2-18.9,14.58-7.48,3.38-16.46,5.06-26.93,5.06-9.37,0-17.79-1.6-25.27-4.8-7.48-3.2-13.87-7.65-19.16-13.36-5.3-5.7-9.36-12.51-12.18-20.43-2.82-7.91-4.23-16.56-4.23-25.93s1.51-18.17,4.54-26.06c3.03-7.89,7.29-14.68,12.79-20.38,5.5-5.7,12.06-10.14,19.69-13.31,7.62-3.17,16.06-4.76,25.32-4.76s17.36,1.51,24.49,4.54c7.13,3.03,13.2,6.98,18.2,11.87l-7.86,10.91c-.47.7-1.06,1.31-1.79,1.83-.73.52-1.73.79-3.01.79-.87,0-1.78-.25-2.71-.74-.93-.49-1.95-1.1-3.06-1.83-1.11-.73-2.39-1.53-3.84-2.4-1.46-.87-3.14-1.67-5.06-2.4-1.92-.73-4.15-1.34-6.68-1.83-2.53-.49-5.46-.74-8.77-.74-5.65,0-10.81,1-15.49,3.01-4.69,2.01-8.72,4.92-12.09,8.73-3.38,3.81-5.99,8.47-7.86,13.97-1.86,5.5-2.79,11.77-2.79,18.81s1,13.41,3.01,18.94c2.01,5.53,4.73,10.18,8.16,13.97,3.43,3.78,7.48,6.68,12.13,8.69,4.66,2.01,9.66,3.01,15.01,3.01,3.2,0,6.1-.17,8.69-.52,2.59-.35,4.98-.9,7.16-1.66,2.18-.76,4.25-1.73,6.2-2.92,1.95-1.19,3.88-2.66,5.81-4.41.58-.52,1.19-.95,1.83-1.27.64-.32,1.31-.48,2.01-.48Z"/>
    <path class="cls-4" d="M593.88,231.3h-18.16c-2.04,0-3.7-.51-4.98-1.53-1.28-1.02-2.24-2.28-2.88-3.8l-9.43-25.75h-52.29l-9.43,25.75c-.47,1.34-1.37,2.56-2.71,3.67-1.34,1.11-3,1.66-4.98,1.66h-18.33l49.67-126.23h23.92l49.58,126.23ZM552.42,183.64l-15.36-41.99c-.76-1.86-1.54-4.07-2.36-6.63-.82-2.56-1.63-5.33-2.44-8.29-.76,2.97-1.54,5.75-2.36,8.34-.82,2.59-1.6,4.84-2.36,6.77l-15.28,41.82h40.16Z"/>
    <path class="cls-4" d="M749.26,231.3h-21.21c-4.02,0-6.93-1.57-8.73-4.71l-26.54-40.42c-.99-1.51-2.08-2.59-3.27-3.23-1.19-.64-2.95-.96-5.28-.96h-10.04v49.32h-23.48v-126.23h38.5c8.55,0,15.9.89,22.04,2.66,6.14,1.78,11.17,4.26,15.1,7.46,3.93,3.2,6.82,7.03,8.69,11.48,1.86,4.45,2.79,9.36,2.79,14.71,0,4.25-.63,8.26-1.88,12.05-1.25,3.78-3.06,7.22-5.41,10.3-2.36,3.09-5.27,5.79-8.73,8.12-3.46,2.33-7.41,4.16-11.83,5.5,1.51.87,2.91,1.91,4.19,3.1,1.28,1.19,2.44,2.6,3.49,4.23l31.6,46.62ZM688.85,165.13c4.42,0,8.28-.55,11.57-1.66,3.29-1.11,5.99-2.63,8.12-4.58,2.12-1.95,3.71-4.26,4.76-6.94,1.05-2.68,1.57-5.62,1.57-8.82,0-6.4-2.11-11.32-6.33-14.75-4.22-3.43-10.67-5.15-19.34-5.15h-15.01v41.9h14.67Z"/>
    <path class="cls-4" d="M891.54,124.36h-38.06v106.94h-23.48v-106.94h-38.06v-19.29h99.6v19.29Z"/>
    <path class="cls-4" d="M975.42,123.75v35.01h44.17v18.07h-44.17v35.7h56.04v18.77h-79.61v-126.23h79.61v18.68h-56.04Z"/>
    <path class="cls-4" d="M1119.54,231.3h-23.57v-126.23h23.57v126.23Z"/>
    <path class="cls-4" d="M1290.02,231.3h-21.21c-4.02,0-6.93-1.57-8.73-4.71l-26.54-40.42c-.99-1.51-2.08-2.59-3.27-3.23-1.19-.64-2.95-.96-5.28-.96h-10.04v49.32h-23.48v-126.23h38.5c8.56,0,15.9.89,22.04,2.66,6.14,1.78,11.17,4.26,15.1,7.46,3.93,3.2,6.82,7.03,8.69,11.48,1.86,4.45,2.79,9.36,2.79,14.71,0,4.25-.63,8.26-1.88,12.05-1.25,3.78-3.06,7.22-5.41,10.3-2.36,3.09-5.27,5.79-8.73,8.12-3.46,2.33-7.41,4.16-11.83,5.5,1.51.87,2.91,1.91,4.19,3.1,1.28,1.19,2.44,2.6,3.49,4.23l31.6,46.62ZM1229.61,165.13c4.42,0,8.28-.55,11.57-1.66,3.29-1.11,5.99-2.63,8.12-4.58,2.12-1.95,3.71-4.26,4.76-6.94,1.05-2.68,1.57-5.62,1.57-8.82,0-6.4-2.11-11.32-6.33-14.75-4.22-3.43-10.66-5.15-19.34-5.15h-15.01v41.9h14.67Z"/>
    <path class="cls-4" d="M1455.61,231.3h-18.16c-2.04,0-3.7-.51-4.98-1.53-1.28-1.02-2.24-2.28-2.88-3.8l-9.43-25.75h-52.29l-9.43,25.75c-.47,1.34-1.37,2.56-2.71,3.67-1.34,1.11-3,1.66-4.98,1.66h-18.33l49.67-126.23h23.92l49.58,126.23ZM1414.14,183.64l-15.36-41.99c-.76-1.86-1.54-4.07-2.36-6.63-.82-2.56-1.63-5.33-2.44-8.29-.76,2.97-1.54,5.75-2.36,8.34-.82,2.59-1.6,4.84-2.36,6.77l-15.28,41.82h40.16Z"/>
    <path class="cls-4" d="M1615,231.3h-23.4c-1.63,0-2.92-.41-3.88-1.22-.96-.81-1.73-1.75-2.31-2.79l-29.24-48.45c-.47,1.46-1.02,2.71-1.66,3.75l-28.02,44.7c-.7.99-1.5,1.91-2.4,2.75-.9.84-2.08,1.27-3.54,1.27h-21.91l41.9-64.95-40.24-61.28h23.4c1.63,0,2.81.22,3.54.65.73.44,1.41,1.15,2.05,2.14l28.72,46.27c.58-1.45,1.28-2.91,2.09-4.36l26.36-41.47c.64-1.1,1.34-1.92,2.09-2.44.76-.52,1.72-.79,2.88-.79h22.44l-40.59,60.32,41.73,65.91Z"/>
  </g>
  <g>
    <path class="cls-3" d="M201.75,281.33l-32.26-50.23-34.35,50.38c10.49,3.06,21.57,4.71,33.04,4.71s22.92-1.71,33.56-4.87Z"/>
    <g>
      <path class="cls-1" d="M217.59,61.02l-37.89,56.64,27.04,37.3,47.07-67.92c-4.36-4.6-9.1-8.85-14.15-12.71-6.81-5.2-14.21-9.68-22.07-13.32Z"/>
      <path class="cls-4" d="M264.88,261.91l-.62-.86-9.34-12.94L119.65,60.62l-9.23-12.99c17.49-8.42,37.09-13.14,57.76-13.14s40.61,4.8,58.22,13.36c9.5,4.61,18.37,10.32,26.46,16.95,3.5,2.87,6.85,5.92,10.04,9.12l.61-.87,19.33-27.9c-.41-.38-.81-.76-1.22-1.13-1.92-1.76-3.87-3.46-5.86-5.12-12.69-10.59-26.8-19.2-42.11-25.68C212.91,4.45,190.88,0,168.18,0s-44.72,4.45-65.47,13.22c-4.27,1.81-8.43,3.79-12.51,5.93l-.11-.15-.9-1.25h0l-4.82-6.68H31.12v2.22l2.8,4.03,19.39,27.83s0,0,0,0l.09.13c-1.4,1.31-2.79,2.63-4.15,4-15.44,15.44-27.56,33.42-36.04,53.45C4.45,123.46,0,145.49,0,168.18s4.45,44.72,13.22,65.47c8.47,20.03,20.6,38.01,36.04,53.45.76.76,1.53,1.51,2.3,2.25,2.32,2.24,4.7,4.4,7.13,6.5,13.18,11.33,27.94,20.49,44.01,27.29,20.75,8.77,42.77,13.22,65.47,13.22,21.26,0,41.92-3.9,61.5-11.6l-18.58-28.89-.57-.88s0,0-.01,0c-2.71.91-5.47,1.73-8.25,2.47-10.89,2.87-22.31,4.41-34.09,4.41s-23.2-1.54-34.09-4.41c-2.76-.73-5.49-1.54-8.17-2.44-6.15-2.06-12.11-4.55-17.83-7.44-13.65-6.9-25.97-16.07-36.44-27.01-23-24.02-37.15-56.59-37.15-92.39s14.91-70.1,39.01-94.29l9.96,14.2,54.22,77.83-56.86,81.51c10.16,11.19,22.43,20.43,36.18,27.07l51.19-75.17,51.19,75.17,8.91,13.08.58.86s-.02,0-.03.01l18.95,27.92c10.67-5.74,20.66-12.59,29.88-20.52,2.41-2.07,4.76-4.21,7.07-6.43l-19.85-27.51Z"/>
      <path class="cls-1" d="M228.28,287.59l-8.91-13.08,8.88,13.09.58.86s.02,0,.03-.01l-.58-.86Z"/>
    </g>
    <polygon class="cls-5" points="264.88 261.91 84.37 11.07 31.12 11.07 31.12 13.29 264.88 261.91"/>
    <path class="cls-2" d="M193.09,267.85l-57.95,13.64s30.41,11.01,66.6-.16"/>
  </g>
</svg>