<svg width="43" height="50" viewBox="0 0 43 50" fill="none"
  xmlns="http://www.w3.org/2000/svg">
  <path d="M30.2312 41.8185L25.3972 34.3521L20.25 41.8408C21.8219 42.2957 23.4822 42.5409 25.2009 42.5409C26.9196 42.5409 28.6353 42.2868 30.2297 41.817L30.2312 41.8185Z" fill="#09515D"/>
  <path d="M39.691 38.9318L39.5981 38.804L38.1985 36.8805L17.929 9.01091L16.5459 7.08C19.1667 5.8284 22.1037 5.12679 25.201 5.12679C28.2983 5.12679 31.2862 5.84029 33.925 7.1127C35.3485 7.79796 36.6776 8.64673 37.8899 9.63225C38.4143 10.0589 38.9163 10.5122 39.3943 10.9879L39.4857 10.8586L42.3822 6.71136C42.3208 6.65487 42.2608 6.59839 42.1994 6.54339C41.9117 6.28177 41.6195 6.02908 41.3213 5.78232C39.4198 4.20816 37.3055 2.92832 35.0113 1.9651C31.9035 0.661474 28.6025 0 25.201 0C21.7995 0 18.4999 0.661474 15.3906 1.9651C14.7508 2.23415 14.1274 2.52995 13.516 2.84657L13.4996 2.82427L13.3647 2.63846L12.6424 1.64551H4.66318V1.9755L5.08275 2.57455L7.98825 6.71136L8.00173 6.73068C7.79195 6.92541 7.58367 7.12162 7.37988 7.32527C5.06627 9.62036 3.25014 12.293 1.97946 15.2704C0.666811 18.3518 0 21.6265 0 24.9993C0 28.372 0.666811 31.6467 1.98095 34.7311C3.25014 37.7085 5.06776 40.3811 7.38137 42.6762C7.49526 42.7892 7.61064 42.9007 7.72602 43.0107C8.07366 43.3436 8.43029 43.6647 8.79441 43.9769C10.7694 45.661 12.9811 47.0226 15.3891 48.0334C18.4984 49.337 21.798 49.9985 25.1995 49.9985C28.3852 49.9985 31.481 49.4188 34.4149 48.2742L31.6308 43.9798L31.5454 43.849C31.5454 43.849 31.5454 43.849 31.5439 43.849C31.1378 43.9843 30.7243 44.1062 30.3077 44.2162C28.6759 44.6428 26.9646 44.8717 25.1995 44.8717C23.4343 44.8717 21.7231 44.6428 20.0912 44.2162C19.6777 44.1077 19.2686 43.9873 18.867 43.8535C17.9455 43.5473 17.0524 43.1772 16.1953 42.7476C14.1499 41.7219 12.3038 40.3588 10.7349 38.7326C7.28847 35.1622 5.16816 30.3208 5.16816 24.9993C5.16816 19.6777 7.40235 14.5792 11.0136 10.9834L12.5061 13.0942L20.6307 24.6633L12.1105 36.7794C13.6329 38.4428 15.4715 39.8163 17.5319 40.8033L25.2025 29.6296L32.873 40.8033L34.2037 42.7491L34.2906 42.8769L37.1301 47.0271C38.729 46.1739 40.2259 45.1556 41.6075 43.9769C41.9686 43.6692 42.3208 43.3511 42.6669 43.0211L39.6925 38.9318H39.691Z" fill="#112C3D"/>
  <path d="M32.6044 9.07033L26.9268 17.4896L30.9786 23.0341L38.0318 12.9381C37.3785 12.2543 36.6682 11.6226 35.9115 11.0488C34.891 10.2759 33.7822 9.60992 32.6044 9.06885V9.07033Z" fill="#FDC800"/>
  <path opacity="0.3" d="M39.6909 38.9318L12.6423 1.64551H4.66309V1.9755L39.6909 38.9318Z" fill="#F3F2F3"/>
  <path d="M28.9335 39.8149L20.25 41.8425C20.25 41.8425 24.8068 43.4791 30.2297 41.8187" fill="#112C3D"/>
</svg>
