<svg width="1407" height="769" viewBox="0 0 1407 769" fill="none" xmlns="http://www.w3.org/2000/svg">
<g clip-path="url(#clip0_1398_976)">
<path d="M455.905 301.45H153.902V441.596H455.905V301.45Z" fill="#243060"/>
<path d="M153.902 0.388216V140.672H556.891V0L153.902 0.388216Z" fill="#243060"/>
<path d="M153.902 0V769L0 625.417V143.236L153.902 0Z" fill="#243060"/>
<path d="M697.162 12.4553L1027.96 341.461L1357.09 12.9729L1027.78 200.659L697.162 12.4553Z" fill="#243060"/>
<path d="M651.616 718.281L980.752 387.788L652.133 58.5155L839.916 387.788L651.616 718.281Z" fill="#243060"/>
<path d="M1407 59.4294L1077.86 387.788L1406.47 719.195L1218.7 389.923L1407 59.4294Z" fill="#243060"/>
<path d="M1358.53 764.908L1027.96 435.854L698.602 764.382L1027.96 576.655L1358.53 764.908Z" fill="#243060"/>
</g>
<defs>
<clipPath id="clip0_1398_976">
<rect width="1407" height="769" fill="white"/>
</clipPath>
</defs>
</svg>
