<svg width="93" height="93" viewBox="0 0 93 93" fill="none" xmlns="http://www.w3.org/2000/svg">
<path d="M46.6356 1.19216e-05C21.7256 0.0181207 1.47807 20.1757 0.836614 45.2585C0.674812 51.5882 1.47482 57.6395 3.59299 63.1804C3.59299 63.1804 -3.45869 28.7372 22.6328 10.7407C29.3227 6.26238 38.8906 4.01834 47.5679 4.20631C69.5384 4.68294 88.7975 24.6486 88.9464 46.7836C89.1003 69.6043 69.2893 88.7677 46.669 88.7677C39.9391 88.7677 32.6476 87.1393 27.4131 83.6157C19.7653 78.4681 19.6391 70.2392 22.1208 63.4248C29.0506 44.3954 40.3263 16.6746 46.669 16.0752C49.6098 15.7974 57.7157 27.9371 69.7772 67.717C69.8077 67.818 69.8232 67.9071 69.8315 67.989C71.1086 69.8654 72.3257 71.9186 72.3257 71.9186C71.2632 70.5122 69.5507 69.0414 67.8744 67.78C49.9885 54.8688 29.2088 50.9417 29.2088 50.9417L28.3775 52.8258C28.3775 52.8258 46.669 56.3277 69.4176 72.5321C71.2586 73.8435 73.074 73.7736 73.4688 71.8798C74.3609 67.5993 56.294 12.3364 46.651 12.3364C40.0358 12.3364 26.0155 43.7993 18.8775 63.4046C15.0604 73.8888 18.4856 84.1271 28.6604 88.562C34.2746 91.0088 40.4666 92.3648 46.9732 92.3641C72.3239 92.3612 92.7739 72.6838 92.8163 47.1487C92.8588 21.4292 72.1636 -0.018459 46.6356 1.19216e-05Z" fill="#253161"/>
<path d="M21.5539 51.2188L22.3306 49.1848C22.3306 49.1848 14.8104 48.3971 8.20886 49.9414C8.20886 49.9414 16.373 49.5213 21.5539 51.2188Z" fill="#253161"/>
<path d="M46.6695 45.472C48.0812 45.472 49.2257 44.3193 49.2257 42.8973C49.2257 41.4753 48.0812 40.3226 46.6695 40.3226C45.2578 40.3226 44.1134 41.4753 44.1134 42.8973C44.1134 44.3193 45.2578 45.472 46.6695 45.472Z" fill="#253161"/>
</svg>
